<svg xmlns="http://www.w3.org/2000/svg" xmlns:xlink="http://www.w3.org/1999/xlink" contentStyleType="text/css" height="2719.2px" preserveAspectRatio="none" style="width:3190px;height:2719px;background:#FFFFFF;" version="1.1" viewBox="0 0 3190 2719" width="3190px" zoomAndPan="magnify"><defs/><g><rect fill="none" height="482.1824" style="stroke:#000000;stroke-width:3.3000000000000003;" width="2940.2302" x="22" y="216.6742"/><rect fill="none" height="744.5152" style="stroke:#000000;stroke-width:3.3000000000000003;" width="2962.2302" x="22" y="729.6566"/><rect fill="none" height="324.616" style="stroke:#000000;stroke-width:3.3000000000000003;" width="2270.9876" x="691.2426" y="1005.1895"/><rect fill="none" height="902.0816" style="stroke:#000000;stroke-width:3.3000000000000003;" width="2962.2302" x="22" y="1504.9719"/><rect fill="none" height="324.616" style="stroke:#000000;stroke-width:3.3000000000000003;" width="1860.0022" x="1102.2279" y="1938.0711"/><line style="stroke:#181818;stroke-width:1.1;stroke-dasharray:5.0,5.0;" x1="83.6" x2="83.6" y1="179.2742" y2="2542.6199"/><line style="stroke:#181818;stroke-width:1.1;stroke-dasharray:5.0,5.0;" x1="253.8035" x2="253.8035" y1="179.2742" y2="2542.6199"/><line style="stroke:#181818;stroke-width:1.1;stroke-dasharray:5.0,5.0;" x1="538.5617" x2="538.5617" y1="179.2742" y2="2542.6199"/><line style="stroke:#181818;stroke-width:1.1;stroke-dasharray:5.0,5.0;" x1="906.8426" x2="906.8426" y1="179.2742" y2="2542.6199"/><line style="stroke:#181818;stroke-width:1.1;stroke-dasharray:5.0,5.0;" x1="1333.2279" x2="1333.2279" y1="179.2742" y2="2542.6199"/><line style="stroke:#181818;stroke-width:1.1;stroke-dasharray:5.0,5.0;" x1="1703.1545" x2="1703.1545" y1="179.2742" y2="2542.6199"/><line style="stroke:#181818;stroke-width:1.1;stroke-dasharray:5.0,5.0;" x1="2045.6434" x2="2045.6434" y1="179.2742" y2="2542.6199"/><line style="stroke:#181818;stroke-width:1.1;stroke-dasharray:5.0,5.0;" x1="2446.2367" x2="2446.2367" y1="179.2742" y2="2542.6199"/><line style="stroke:#181818;stroke-width:1.1;stroke-dasharray:5.0,5.0;" x1="2836.2673" x2="2836.2673" y1="179.2742" y2="2542.6199"/><line style="stroke:#181818;stroke-width:1.1;stroke-dasharray:5.0,5.0;" x1="3070.0302" x2="3070.0302" y1="179.2742" y2="2542.6199"/><text fill="#000000" font-family="sans-serif" font-size="30.8" lengthAdjust="spacing" textLength="66.8035" x="44" y="172.7773">User</text><ellipse cx="84.0018" cy="29.7" fill="#E2E2F0" rx="17.6" ry="17.6" style="stroke:#181818;stroke-width:1.1;"/><path d="M84.0018,47.3 L84.0018,106.7 M55.4018,64.9 L112.6018,64.9 M84.0018,106.7 L55.4018,139.7 M84.0018,106.7 L112.6018,139.7 " fill="none" style="stroke:#181818;stroke-width:1.1;"/><text fill="#000000" font-family="sans-serif" font-size="30.8" lengthAdjust="spacing" textLength="66.8035" x="44" y="2570.1973">User</text><ellipse cx="84.0018" cy="2595.3941" fill="#E2E2F0" rx="17.6" ry="17.6" style="stroke:#181818;stroke-width:1.1;"/><path d="M84.0018,2612.9941 L84.0018,2672.3941 M55.4018,2630.5941 L112.6018,2630.5941 M84.0018,2672.3941 L55.4018,2705.3941 M84.0018,2672.3941 L112.6018,2705.3941 " fill="none" style="stroke:#181818;stroke-width:1.1;"/><rect fill="#E2E2F0" height="67.0742" rx="5.5" ry="5.5" style="stroke:#181818;stroke-width:1.1;" width="218.7582" x="146.0035" y="110"/><text fill="#000000" font-family="sans-serif" font-size="30.8" lengthAdjust="spacing" textLength="187.9582" x="161.4035" y="155.1773">MainWindow</text><rect fill="#E2E2F0" height="67.0742" rx="5.5" ry="5.5" style="stroke:#181818;stroke-width:1.1;" width="218.7582" x="146.0035" y="2540.4199"/><text fill="#000000" font-family="sans-serif" font-size="30.8" lengthAdjust="spacing" textLength="187.9582" x="161.4035" y="2585.5973">MainWindow</text><rect fill="#E2E2F0" height="67.0742" rx="5.5" ry="5.5" style="stroke:#181818;stroke-width:1.1;" width="304.4809" x="386.7617" y="110"/><text fill="#000000" font-family="sans-serif" font-size="30.8" lengthAdjust="spacing" textLength="273.6809" x="402.1617" y="155.1773">DetectionInterface</text><rect fill="#E2E2F0" height="67.0742" rx="5.5" ry="5.5" style="stroke:#181818;stroke-width:1.1;" width="304.4809" x="386.7617" y="2540.4199"/><text fill="#000000" font-family="sans-serif" font-size="30.8" lengthAdjust="spacing" textLength="273.6809" x="402.1617" y="2585.5973">DetectionInterface</text><rect fill="#E2E2F0" height="67.0742" rx="5.5" ry="5.5" style="stroke:#181818;stroke-width:1.1;" width="388.9854" x="713.2426" y="110"/><text fill="#000000" font-family="sans-serif" font-size="30.8" lengthAdjust="spacing" textLength="358.1854" x="728.6426" y="155.1773">VideoDetectionInterface</text><rect fill="#E2E2F0" height="67.0742" rx="5.5" ry="5.5" style="stroke:#181818;stroke-width:1.1;" width="388.9854" x="713.2426" y="2540.4199"/><text fill="#000000" font-family="sans-serif" font-size="30.8" lengthAdjust="spacing" textLength="358.1854" x="728.6426" y="2585.5973">VideoDetectionInterface</text><rect fill="#E2E2F0" height="67.0742" rx="5.5" ry="5.5" style="stroke:#181818;stroke-width:1.1;" width="418.3266" x="1124.2279" y="110"/><text fill="#000000" font-family="sans-serif" font-size="30.8" lengthAdjust="spacing" textLength="387.5266" x="1139.6279" y="155.1773">CameraDetectionInterface</text><rect fill="#E2E2F0" height="67.0742" rx="5.5" ry="5.5" style="stroke:#181818;stroke-width:1.1;" width="418.3266" x="1124.2279" y="2540.4199"/><text fill="#000000" font-family="sans-serif" font-size="30.8" lengthAdjust="spacing" textLength="387.5266" x="1139.6279" y="2585.5973">CameraDetectionInterface</text><rect fill="#E2E2F0" height="67.0742" rx="5.5" ry="5.5" style="stroke:#181818;stroke-width:1.1;" width="278.6889" x="1564.5545" y="110"/><text fill="#000000" font-family="sans-serif" font-size="30.8" lengthAdjust="spacing" textLength="247.8889" x="1579.9545" y="155.1773">DetectionThread</text><rect fill="#E2E2F0" height="67.0742" rx="5.5" ry="5.5" style="stroke:#181818;stroke-width:1.1;" width="278.6889" x="1564.5545" y="2540.4199"/><text fill="#000000" font-family="sans-serif" font-size="30.8" lengthAdjust="spacing" textLength="247.8889" x="1579.9545" y="2585.5973">DetectionThread</text><rect fill="#E2E2F0" height="67.0742" rx="5.5" ry="5.5" style="stroke:#181818;stroke-width:1.1;" width="363.1934" x="1865.2434" y="110"/><text fill="#000000" font-family="sans-serif" font-size="30.8" lengthAdjust="spacing" textLength="332.3934" x="1880.6434" y="155.1773">VideoDetectionThread</text><rect fill="#E2E2F0" height="67.0742" rx="5.5" ry="5.5" style="stroke:#181818;stroke-width:1.1;" width="363.1934" x="1865.2434" y="2540.4199"/><text fill="#000000" font-family="sans-serif" font-size="30.8" lengthAdjust="spacing" textLength="332.3934" x="1880.6434" y="2585.5973">VideoDetectionThread</text><rect fill="#E2E2F0" height="67.0742" rx="5.5" ry="5.5" style="stroke:#181818;stroke-width:1.1;" width="392.5346" x="2250.4367" y="110"/><text fill="#000000" font-family="sans-serif" font-size="30.8" lengthAdjust="spacing" textLength="361.7346" x="2265.8367" y="155.1773">CameraDetectionThread</text><rect fill="#E2E2F0" height="67.0742" rx="5.5" ry="5.5" style="stroke:#181818;stroke-width:1.1;" width="392.5346" x="2250.4367" y="2540.4199"/><text fill="#000000" font-family="sans-serif" font-size="30.8" lengthAdjust="spacing" textLength="361.7346" x="2265.8367" y="2585.5973">CameraDetectionThread</text><rect fill="#E2E2F0" height="67.0742" rx="5.5" ry="5.5" style="stroke:#181818;stroke-width:1.1;" width="205.1629" x="2735.0673" y="110"/><text fill="#000000" font-family="sans-serif" font-size="30.8" lengthAdjust="spacing" textLength="174.3629" x="2750.4673" y="155.1773">YOLOModel</text><rect fill="#E2E2F0" height="67.0742" rx="5.5" ry="5.5" style="stroke:#181818;stroke-width:1.1;" width="205.1629" x="2735.0673" y="2540.4199"/><text fill="#000000" font-family="sans-serif" font-size="30.8" lengthAdjust="spacing" textLength="174.3629" x="2750.4673" y="2585.5973">YOLOModel</text><rect fill="#E2E2F0" height="67.0742" rx="5.5" ry="5.5" style="stroke:#181818;stroke-width:1.1;" width="216.0963" x="2962.2302" y="110"/><text fill="#000000" font-family="sans-serif" font-size="30.8" lengthAdjust="spacing" textLength="185.2963" x="2977.6302" y="155.1773">AllInterfaces</text><rect fill="#E2E2F0" height="67.0742" rx="5.5" ry="5.5" style="stroke:#181818;stroke-width:1.1;" width="216.0963" x="2962.2302" y="2540.4199"/><text fill="#000000" font-family="sans-serif" font-size="30.8" lengthAdjust="spacing" textLength="185.2963" x="2977.6302" y="2585.5973">AllInterfaces</text><path d="M22,216.6742 L292.6,216.6742 L292.6,232.7574 L270.6,254.7574 L22,254.7574 L22,216.6742 " fill="#EEEEEE" style="stroke:#000000;stroke-width:3.3000000000000003;"/><rect fill="none" height="482.1824" style="stroke:#000000;stroke-width:3.3000000000000003;" width="2940.2302" x="22" y="216.6742"/><text fill="#000000" font-family="sans-serif" font-size="28.6" font-weight="bold" lengthAdjust="spacing" textLength="171.6" x="55" y="246.5246">&#22270;&#29255;&#26816;&#27979;&#27969;&#31243;</text><polygon fill="#181818" points="512.6021,292.8406,534.6021,301.6406,512.6021,310.4406,521.4021,301.6406" style="stroke:#181818;stroke-width:2.2;"/><line style="stroke:#181818;stroke-width:2.2;" x1="84.0018" x2="525.8021" y1="301.6406" y2="301.6406"/><text fill="#000000" font-family="sans-serif" font-size="28.6" lengthAdjust="spacing" textLength="114.4" x="99.4018" y="291.2078">&#19978;&#20256;&#22270;&#29255;</text><line style="stroke:#181818;stroke-width:2.2;" x1="539.0021" x2="631.4021" y1="366.1238" y2="366.1238"/><line style="stroke:#181818;stroke-width:2.2;" x1="631.4021" x2="631.4021" y1="366.1238" y2="394.7238"/><line style="stroke:#181818;stroke-width:2.2;" x1="541.2021" x2="631.4021" y1="394.7238" y2="394.7238"/><polygon fill="#181818" points="563.2021,385.9238,541.2021,394.7238,563.2021,403.5238,554.4021,394.7238" style="stroke:#181818;stroke-width:2.2;"/><text fill="#000000" font-family="sans-serif" font-size="28.6" lengthAdjust="spacing" textLength="198.4823" x="554.4021" y="355.691">uploadImage()</text><polygon fill="#181818" points="2811.2487,450.407,2833.2487,459.207,2811.2487,468.007,2820.0487,459.207" style="stroke:#181818;stroke-width:2.2;"/><line style="stroke:#181818;stroke-width:2.2;" x1="539.0021" x2="2824.4487" y1="459.207" y2="459.207"/><text fill="#000000" font-family="sans-serif" font-size="28.6" lengthAdjust="spacing" textLength="313.1197" x="554.4021" y="448.7742">runDetection(&#22270;&#29255;&#36335;&#24452;)</text><polygon fill="#181818" points="563.2021,514.8902,541.2021,523.6902,563.2021,532.4902,554.4021,523.6902" style="stroke:#181818;stroke-width:2.2;"/><line style="stroke:#181818;stroke-width:2.2;stroke-dasharray:2.0,2.0;" x1="550.0021" x2="2835.4487" y1="523.6902" y2="523.6902"/><text fill="#000000" font-family="sans-serif" font-size="28.6" lengthAdjust="spacing" textLength="171.6" x="576.4021" y="513.2574">&#36820;&#22238;&#26816;&#27979;&#32467;&#26524;</text><line style="stroke:#181818;stroke-width:2.2;" x1="539.0021" x2="631.4021" y1="588.1734" y2="588.1734"/><line style="stroke:#181818;stroke-width:2.2;" x1="631.4021" x2="631.4021" y1="588.1734" y2="616.7734"/><line style="stroke:#181818;stroke-width:2.2;" x1="541.2021" x2="631.4021" y1="616.7734" y2="616.7734"/><polygon fill="#181818" points="563.2021,607.9734,541.2021,616.7734,563.2021,625.5734,554.4021,616.7734" style="stroke:#181818;stroke-width:2.2;"/><text fill="#000000" font-family="sans-serif" font-size="28.6" lengthAdjust="spacing" textLength="216.3434" x="554.4021" y="577.7406">displayResults()</text><polygon fill="#181818" points="279.5826,672.4566,257.5826,681.2566,279.5826,690.0566,270.7826,681.2566" style="stroke:#181818;stroke-width:2.2;"/><line style="stroke:#181818;stroke-width:2.2;" x1="266.3826" x2="536.8021" y1="681.2566" y2="681.2566"/><text fill="#000000" font-family="sans-serif" font-size="28.6" lengthAdjust="spacing" textLength="171.6" x="292.7826" y="670.8238">&#26356;&#26032;&#22270;&#29255;&#26174;&#31034;</text><path d="M22,729.6566 L292.6,729.6566 L292.6,745.7398 L270.6,767.7398 L22,767.7398 L22,729.6566 " fill="#EEEEEE" style="stroke:#000000;stroke-width:3.3000000000000003;"/><rect fill="none" height="744.5152" style="stroke:#000000;stroke-width:3.3000000000000003;" width="2962.2302" x="22" y="729.6566"/><text fill="#000000" font-family="sans-serif" font-size="28.6" font-weight="bold" lengthAdjust="spacing" textLength="171.6" x="55" y="759.507">&#35270;&#39057;&#26816;&#27979;&#27969;&#31243;</text><polygon fill="#181818" points="881.3353,805.823,903.3353,814.623,881.3353,823.423,890.1353,814.623" style="stroke:#181818;stroke-width:2.2;"/><line style="stroke:#181818;stroke-width:2.2;" x1="84.0018" x2="894.5353" y1="814.623" y2="814.623"/><text fill="#000000" font-family="sans-serif" font-size="28.6" lengthAdjust="spacing" textLength="171.6" x="99.4018" y="804.1902">&#36873;&#25321;&#35270;&#39057;&#25991;&#20214;</text><polygon fill="#181818" points="2020.44,870.3063,2042.44,879.1063,2020.44,887.9063,2029.24,879.1063" style="stroke:#181818;stroke-width:2.2;"/><line style="stroke:#181818;stroke-width:2.2;" x1="907.7353" x2="2033.64" y1="879.1063" y2="879.1063"/><text fill="#000000" font-family="sans-serif" font-size="28.6" lengthAdjust="spacing" textLength="171.6" x="923.1353" y="868.6734">&#21019;&#24314;&#35270;&#39057;&#32447;&#31243;</text><line style="stroke:#181818;stroke-width:2.2;" x1="2046.84" x2="2139.24" y1="943.5895" y2="943.5895"/><line style="stroke:#181818;stroke-width:2.2;" x1="2139.24" x2="2139.24" y1="943.5895" y2="972.1895"/><line style="stroke:#181818;stroke-width:2.2;" x1="2049.04" x2="2139.24" y1="972.1895" y2="972.1895"/><polygon fill="#181818" points="2071.04,963.3895,2049.04,972.1895,2071.04,980.9895,2062.24,972.1895" style="stroke:#181818;stroke-width:2.2;"/><text fill="#000000" font-family="sans-serif" font-size="28.6" lengthAdjust="spacing" textLength="171.6" x="2062.24" y="933.1566">&#25171;&#24320;&#35270;&#39057;&#25991;&#20214;</text><path d="M691.2426,1005.1895 L855.0255,1005.1895 L855.0255,1021.2727 L833.0255,1043.2727 L691.2426,1043.2727 L691.2426,1005.1895 " fill="#EEEEEE" style="stroke:#000000;stroke-width:3.3000000000000003;"/><rect fill="none" height="324.616" style="stroke:#000000;stroke-width:3.3000000000000003;" width="2270.9876" x="691.2426" y="1005.1895"/><text fill="#000000" font-family="sans-serif" font-size="28.6" font-weight="bold" lengthAdjust="spacing" textLength="64.7829" x="724.2426" y="1035.0398">loop</text><text fill="#000000" font-family="sans-serif" font-size="24.2" font-weight="bold" lengthAdjust="spacing" textLength="114.7373" x="888.0255" y="1032.9859">[&#36880;&#24103;&#22788;&#29702;]</text><polygon fill="#181818" points="2811.2487,1081.3559,2833.2487,1090.1559,2811.2487,1098.9559,2820.0487,1090.1559" style="stroke:#181818;stroke-width:2.2;"/><line style="stroke:#181818;stroke-width:2.2;" x1="2046.84" x2="2824.4487" y1="1090.1559" y2="1090.1559"/><text fill="#000000" font-family="sans-serif" font-size="28.6" lengthAdjust="spacing" textLength="211.0786" x="2062.24" y="1079.723">processFrame()</text><polygon fill="#181818" points="2071.04,1145.8391,2049.04,1154.6391,2071.04,1163.4391,2062.24,1154.6391" style="stroke:#181818;stroke-width:2.2;"/><line style="stroke:#181818;stroke-width:2.2;stroke-dasharray:2.0,2.0;" x1="2057.84" x2="2835.4487" y1="1154.6391" y2="1154.6391"/><text fill="#000000" font-family="sans-serif" font-size="28.6" lengthAdjust="spacing" textLength="114.4" x="2084.24" y="1144.2063">&#26631;&#27880;&#32467;&#26524;</text><polygon fill="#181818" points="931.9353,1210.3223,909.9353,1219.1223,931.9353,1227.9223,923.1353,1219.1223" style="stroke:#181818;stroke-width:2.2;"/><line style="stroke:#181818;stroke-width:2.2;" x1="918.7353" x2="2044.64" y1="1219.1223" y2="1219.1223"/><text fill="#000000" font-family="sans-serif" font-size="28.6" lengthAdjust="spacing" textLength="143" x="945.1353" y="1208.6895">&#21457;&#36865;&#22788;&#29702;&#24103;</text><line style="stroke:#181818;stroke-width:2.2;" x1="907.7353" x2="1000.1353" y1="1283.6055" y2="1283.6055"/><line style="stroke:#181818;stroke-width:2.2;" x1="1000.1353" x2="1000.1353" y1="1283.6055" y2="1312.2055"/><line style="stroke:#181818;stroke-width:2.2;" x1="909.9353" x2="1000.1353" y1="1312.2055" y2="1312.2055"/><polygon fill="#181818" points="931.9353,1303.4055,909.9353,1312.2055,931.9353,1321.0055,923.1353,1312.2055" style="stroke:#181818;stroke-width:2.2;"/><text fill="#000000" font-family="sans-serif" font-size="28.6" lengthAdjust="spacing" textLength="171.6" x="923.1353" y="1273.1727">&#26356;&#26032;&#35270;&#39057;&#26174;&#31034;</text><polygon fill="#181818" points="881.3353,1383.2887,903.3353,1392.0887,881.3353,1400.8887,890.1353,1392.0887" style="stroke:#181818;stroke-width:2.2;"/><line style="stroke:#181818;stroke-width:2.2;" x1="84.0018" x2="894.5353" y1="1392.0887" y2="1392.0887"/><text fill="#000000" font-family="sans-serif" font-size="28.6" lengthAdjust="spacing" textLength="171.6" x="99.4018" y="1381.6559">&#28857;&#20987;&#12300;&#20572;&#27490;&#12301;</text><polygon fill="#181818" points="2020.44,1447.7719,2042.44,1456.5719,2020.44,1465.3719,2029.24,1456.5719" style="stroke:#181818;stroke-width:2.2;"/><line style="stroke:#181818;stroke-width:2.2;" x1="907.7353" x2="2033.64" y1="1456.5719" y2="1456.5719"/><text fill="#000000" font-family="sans-serif" font-size="28.6" lengthAdjust="spacing" textLength="114.4" x="923.1353" y="1446.1391">&#32456;&#27490;&#32447;&#31243;</text><path d="M22,1504.9719 L292.6,1504.9719 L292.6,1521.0551 L270.6,1543.0551 L22,1543.0551 L22,1504.9719 " fill="#EEEEEE" style="stroke:#000000;stroke-width:3.3000000000000003;"/><rect fill="none" height="902.0816" style="stroke:#000000;stroke-width:3.3000000000000003;" width="2962.2302" x="22" y="1504.9719"/><text fill="#000000" font-family="sans-serif" font-size="28.6" font-weight="bold" lengthAdjust="spacing" textLength="171.6" x="55" y="1534.8223">&#23454;&#26102;&#26816;&#27979;&#27969;&#31243;</text><polygon fill="#181818" points="1306.9912,1581.1383,1328.9912,1589.9383,1306.9912,1598.7383,1315.7912,1589.9383" style="stroke:#181818;stroke-width:2.2;"/><line style="stroke:#181818;stroke-width:2.2;" x1="84.0018" x2="1320.1912" y1="1589.9383" y2="1589.9383"/><text fill="#000000" font-family="sans-serif" font-size="28.6" lengthAdjust="spacing" textLength="143" x="99.4018" y="1579.5055">&#36873;&#25321;&#25668;&#20687;&#22836;</text><line style="stroke:#181818;stroke-width:2.2;" x1="1333.3912" x2="1425.7912" y1="1654.4215" y2="1654.4215"/><line style="stroke:#181818;stroke-width:2.2;" x1="1425.7912" x2="1425.7912" y1="1654.4215" y2="1683.0215"/><line style="stroke:#181818;stroke-width:2.2;" x1="1335.5912" x2="1425.7912" y1="1683.0215" y2="1683.0215"/><polygon fill="#181818" points="1357.5912,1674.2215,1335.5912,1683.0215,1357.5912,1691.8215,1348.7912,1683.0215" style="stroke:#181818;stroke-width:2.2;"/><text fill="#000000" font-family="sans-serif" font-size="28.6" lengthAdjust="spacing" textLength="200.2" x="1348.7912" y="1643.9887">&#21021;&#22987;&#21270;&#35774;&#22791;&#21015;&#34920;</text><polygon fill="#181818" points="1306.9912,1738.7047,1328.9912,1747.5047,1306.9912,1756.3047,1315.7912,1747.5047" style="stroke:#181818;stroke-width:2.2;"/><line style="stroke:#181818;stroke-width:2.2;" x1="84.0018" x2="1320.1912" y1="1747.5047" y2="1747.5047"/><text fill="#000000" font-family="sans-serif" font-size="28.6" lengthAdjust="spacing" textLength="228.8" x="99.4018" y="1737.0719">&#28857;&#20987;&#12300;&#24320;&#22987;&#26816;&#27979;&#12301;</text><polygon fill="#181818" points="2420.304,1803.1879,2442.304,1811.9879,2420.304,1820.7879,2429.104,1811.9879" style="stroke:#181818;stroke-width:2.2;"/><line style="stroke:#181818;stroke-width:2.2;" x1="1333.3912" x2="2433.504" y1="1811.9879" y2="1811.9879"/><text fill="#000000" font-family="sans-serif" font-size="28.6" lengthAdjust="spacing" textLength="200.2" x="1348.7912" y="1801.5551">&#21019;&#24314;&#25668;&#20687;&#22836;&#32447;&#31243;</text><line style="stroke:#181818;stroke-width:2.2;" x1="2446.704" x2="2539.104" y1="1876.4711" y2="1876.4711"/><line style="stroke:#181818;stroke-width:2.2;" x1="2539.104" x2="2539.104" y1="1876.4711" y2="1905.0711"/><line style="stroke:#181818;stroke-width:2.2;" x1="2448.904" x2="2539.104" y1="1905.0711" y2="1905.0711"/><polygon fill="#181818" points="2470.904,1896.2711,2448.904,1905.0711,2470.904,1913.8711,2462.104,1905.0711" style="stroke:#181818;stroke-width:2.2;"/><text fill="#000000" font-family="sans-serif" font-size="28.6" lengthAdjust="spacing" textLength="143" x="2462.104" y="1866.0383">&#24320;&#21551;&#25668;&#20687;&#22836;</text><path d="M1102.2279,1938.0711 L1266.0108,1938.0711 L1266.0108,1954.1543 L1244.0108,1976.1543 L1102.2279,1976.1543 L1102.2279,1938.0711 " fill="#EEEEEE" style="stroke:#000000;stroke-width:3.3000000000000003;"/><rect fill="none" height="324.616" style="stroke:#000000;stroke-width:3.3000000000000003;" width="1860.0022" x="1102.2279" y="1938.0711"/><text fill="#000000" font-family="sans-serif" font-size="28.6" font-weight="bold" lengthAdjust="spacing" textLength="64.7829" x="1135.2279" y="1967.9215">loop</text><text fill="#000000" font-family="sans-serif" font-size="24.2" font-weight="bold" lengthAdjust="spacing" textLength="138.9373" x="1299.0108" y="1965.8676">[&#23454;&#26102;&#24103;&#22788;&#29702;]</text><polygon fill="#181818" points="2811.2487,2014.2375,2833.2487,2023.0375,2811.2487,2031.8375,2820.0487,2023.0375" style="stroke:#181818;stroke-width:2.2;"/><line style="stroke:#181818;stroke-width:2.2;" x1="2446.704" x2="2824.4487" y1="2023.0375" y2="2023.0375"/><text fill="#000000" font-family="sans-serif" font-size="28.6" lengthAdjust="spacing" textLength="338.1447" x="2462.104" y="2012.6047">processRealTimeFrame()</text><polygon fill="#181818" points="2470.904,2078.7207,2448.904,2087.5207,2470.904,2096.3207,2462.104,2087.5207" style="stroke:#181818;stroke-width:2.2;"/><line style="stroke:#181818;stroke-width:2.2;stroke-dasharray:2.0,2.0;" x1="2457.704" x2="2835.4487" y1="2087.5207" y2="2087.5207"/><text fill="#000000" font-family="sans-serif" font-size="28.6" lengthAdjust="spacing" textLength="171.6" x="2484.104" y="2077.0879">&#23454;&#26102;&#26631;&#27880;&#32467;&#26524;</text><polygon fill="#181818" points="1357.5912,2143.2039,1335.5912,2152.0039,1357.5912,2160.8039,1348.7912,2152.0039" style="stroke:#181818;stroke-width:2.2;"/><line style="stroke:#181818;stroke-width:2.2;" x1="1344.3912" x2="2444.504" y1="2152.0039" y2="2152.0039"/><text fill="#000000" font-family="sans-serif" font-size="28.6" lengthAdjust="spacing" textLength="143" x="1370.7912" y="2141.5711">&#21457;&#36865;&#23454;&#26102;&#24103;</text><line style="stroke:#181818;stroke-width:2.2;" x1="1333.3912" x2="1425.7912" y1="2216.4871" y2="2216.4871"/><line style="stroke:#181818;stroke-width:2.2;" x1="1425.7912" x2="1425.7912" y1="2216.4871" y2="2245.0871"/><line style="stroke:#181818;stroke-width:2.2;" x1="1335.5912" x2="1425.7912" y1="2245.0871" y2="2245.0871"/><polygon fill="#181818" points="1357.5912,2236.2871,1335.5912,2245.0871,1357.5912,2253.8871,1348.7912,2245.0871" style="stroke:#181818;stroke-width:2.2;"/><text fill="#000000" font-family="sans-serif" font-size="28.6" lengthAdjust="spacing" textLength="200.2" x="1348.7912" y="2206.0543">&#26356;&#26032;&#25668;&#20687;&#22836;&#26174;&#31034;</text><polygon fill="#181818" points="1306.9912,2316.1703,1328.9912,2324.9703,1306.9912,2333.7703,1315.7912,2324.9703" style="stroke:#181818;stroke-width:2.2;"/><line style="stroke:#181818;stroke-width:2.2;" x1="84.0018" x2="1320.1912" y1="2324.9703" y2="2324.9703"/><text fill="#000000" font-family="sans-serif" font-size="28.6" lengthAdjust="spacing" textLength="171.6" x="99.4018" y="2314.5375">&#28857;&#20987;&#12300;&#20572;&#27490;&#12301;</text><polygon fill="#181818" points="2420.304,2380.6535,2442.304,2389.4535,2420.304,2398.2535,2429.104,2389.4535" style="stroke:#181818;stroke-width:2.2;"/><line style="stroke:#181818;stroke-width:2.2;" x1="1333.3912" x2="2433.504" y1="2389.4535" y2="2389.4535"/><text fill="#000000" font-family="sans-serif" font-size="28.6" lengthAdjust="spacing" textLength="114.4" x="1348.7912" y="2379.0207">&#32456;&#27490;&#32447;&#31243;</text><polygon fill="#181818" points="3043.8783,2494.2199,3065.8783,2503.0199,3043.8783,2511.8199,3052.6783,2503.0199" style="stroke:#181818;stroke-width:2.2;"/><line style="stroke:#181818;stroke-width:2.2;" x1="255.3826" x2="3057.0783" y1="2503.0199" y2="2503.0199"/><text fill="#000000" font-family="sans-serif" font-size="28.6" lengthAdjust="spacing" textLength="171.6" x="270.7826" y="2458.9039">&#20840;&#23616;&#35774;&#32622;&#26356;&#26032;</text><text fill="#000000" font-family="sans-serif" font-size="28.6" lengthAdjust="spacing" textLength="262.3994" x="270.7826" y="2492.5871">(&#32622;&#20449;&#24230;/&#26368;&#22823;&#26816;&#27979;&#25968;)</text><!--SRC=[dLJVRz9G67tlNz57U5XyxuE9qPWiSLcoJ8s9BpVqEfkKjcbBZ6z5SGMP6MJAJ42oJIBu89jncvCY_37ZkuN_mk8jRHcz_DWRQSztllETSoXAcQhEFpQmpcb8DwMKf275v3UGf3oL555zDVNu0JPnofHKPLqniVu2fV3KwoUIYDK5cFieZNMq01IytdwfOoJEMH83kB4X1l5iyz7cXYfYcUDsT3MZyL3jkGMRVBN8HP5SPDrMaHjRmg_TZJbPu0TNxmVT8ph4pG9OOnbDLf6udaOxE95ap0NI15xFA04cGPSDVvz2BvVa0XI_njWrx7-4QfrUv3e7f5vRGQWe6PgCNczX8oER1bDhM1A19zLpKZdpVVpSSniT3YlYnDzXStTqKexrbz4PWHzP1LByxazMx85poJ6mipGqSu67V1MS3kLmE_tntZWWcu0K3g1hJOcGLLNpn9NWgWcDd5lQPL96ijHqDOKDuw7kTJDnCp_6wYER_6hvsIsdEk8Ux9T7LfOAz9GkRrs4WsRg7nzckZ0vzyqVi9rhQm-oDVBZvDhwi7fohfFtHltC8as2TfqSNiOsYVLbcLI9b7FmTXyQvnmBEPy5yb-WMOIzoh3TWuOD-SFXSMk9xQ4TNSiZeDh7fgmWOxhGmIM-Fx7WUIoUaD9fwCV_IbDdmrOpIMThlOMHl2sbSNozMI9eaj6MBtl7RCydscyPBMrwO4XCsPU9DsZxBOATxNluTHsFtPFbWCRmpdxNWf-MLqJtRvkAVwualD-3_Z5qljqXDGiQJVzVykaioVq3]--></g></svg>